<?xml version="1.0" encoding="UTF-8"?>
<svg width="423px" height="114px" viewBox="0 0 423 114" xmlns="http://www.w3.org/2000/svg" xmlns:xlink="http://www.w3.org/1999/xlink" version="1.1">
 <!-- Generated by Pixelmator Pro 2.2 -->
 <path id="Path" d="M397.07 74.72 C410.33 68.32 418.6 57.25 418.6 41.33 L418.6 41.02 C418.6 29.79 415.17 21.68 408.62 15.12 400.98 7.48 388.65 2.64 369.31 2.64 L315.96 2.64 315.96 33.7 C306.89 13.88 286.39 0.3 261.54 0.3 236.65 0.3 215.94 14.1 206.81 34.07 L206.81 2.64 170.3 2.64 170.3 41.17 136.91 41.17 136.91 2.64 100.4 2.64 -0.37 2.64 -0.37 33.53 31.77 33.53 31.77 111.85 68.28 111.85 68.28 33.53 100.42 33.53 100.42 111.85 136.93 111.85 136.93 72.69 170.32 72.69 170.32 111.85 206.83 111.85 206.83 80.79 C215.9 100.61 236.4 114.19 261.25 114.19 286.14 114.19 306.85 100.39 315.98 80.42 L315.98 111.85 352.49 111.85 352.49 80.65 360.29 80.65 380.88 111.85 422.53 111.85 Z M284.15 57.56 C284.15 70.35 275.41 81.9 261.53 81.9 247.49 81.9 238.6 70.2 238.6 57.25 L238.6 56.94 C238.6 44.15 247.34 32.6 261.22 32.6 275.26 32.6 284.15 44.3 284.15 57.25 Z M382.25 43.98 C382.25 50.69 376.95 54.59 368.21 54.59 L352.45 54.59 352.45 33.22 368.36 33.22 C376.78 33.22 382.24 36.65 382.24 43.67 L382.24 43.98 Z" fill="#ffffff" fill-opacity="1" stroke="none"/>
</svg>
